<?xml version="1.0" encoding="UTF-8" standalone="no"?>
<svg
   xmlns:dc="http://purl.org/dc/elements/1.1/"
   xmlns:cc="http://creativecommons.org/ns#"
   xmlns:rdf="http://www.w3.org/1999/02/22-rdf-syntax-ns#"
   xmlns:svg="http://www.w3.org/2000/svg"
   xmlns="http://www.w3.org/2000/svg"
   xmlns:sodipodi="http://sodipodi.sourceforge.net/DTD/sodipodi-0.dtd"
   xmlns:inkscape="http://www.inkscape.org/namespaces/inkscape"
   version="1.1"
   id="Layer_1"
   x="0px"
   y="0px"
   viewBox="0 0 135.23 65.65"
   style="enable-background:new 0 0 135.23 65.65;"
   xml:space="preserve"
   sodipodi:docname="fastify-dx-white.svg"
   inkscape:version="1.0.2 (e86c8708, 2021-01-15)"><metadata
   id="metadata35"><rdf:RDF><cc:Work
       rdf:about=""><dc:format>image/svg+xml</dc:format><dc:type
         rdf:resource="http://purl.org/dc/dcmitype/StillImage" /></cc:Work></rdf:RDF></metadata><defs
   id="defs33" /><sodipodi:namedview
   pagecolor="#ffffff"
   bordercolor="#666666"
   borderopacity="1"
   objecttolerance="10"
   gridtolerance="10"
   guidetolerance="10"
   inkscape:pageopacity="0"
   inkscape:pageshadow="2"
   inkscape:window-width="1289"
   inkscape:window-height="811"
   id="namedview31"
   showgrid="false"
   inkscape:zoom="4.5527763"
   inkscape:cx="50.916377"
   inkscape:cy="57.355966"
   inkscape:window-x="0"
   inkscape:window-y="25"
   inkscape:window-maximized="0"
   inkscape:current-layer="g26" />
<style
   type="text/css"
   id="style10">
	.st0{fill-rule:evenodd;clip-rule:evenodd;}
</style>
<g
   id="g28">
	<g
   id="g14"
   style="fill:#ffffff">
		<path
   class="st0"
   d="M114.51,21.97l-1.31-0.31c-1.42-0.33-2.1-0.49-2.73-0.91c-0.58-0.38-1-0.91-1.81-1.92    c-0.34-0.43-0.75-0.95-1.21-1.5c-0.21-0.25-0.17-0.63,0.08-0.84c0.14-0.12,0.32-0.16,0.48-0.13c1.08,0.17,2,0.28,2.73,0.36    c1.38,0.16,2.14,0.25,2.73,0.64c0.76,0.5,1,1.3,1.52,3.06l0.24,0.79c0.09,0.32-0.09,0.65-0.4,0.74    C114.73,22,114.62,22,114.51,21.97 M76.38,52.74c3.45-0.28,6.48-0.39,9.26,0.07c3.17,0.53,5.96,1.8,8.59,4.41l0.23,0.23    c1.88,1.89,8.42,8.41,11.69,8.2c1.12-0.07,1.81-1.2,1.63-4.12l-1.34-4.15c-3.31-8.62-4.71-14.32-2.26-23.47    c0.06-0.23,0.25-0.39,0.47-0.43l8.71-1.69c0.32-0.06,0.64,0.15,0.7,0.47c0.05,0.28-0.1,0.55-0.35,0.66    c-0.21,0.1-0.73,0.3-1.31,0.52c-0.82,0.32-1.77,0.68-2.03,0.83c-0.92,0.53-1.42,0.78-1.71,0.92c-0.13,0.07-0.2,0.1-0.24,0.13    l-0.05,0.06l10.64-0.74c2.02-0.15,4.55,0.32,6.95,0.78c2.84,0.54,5.5,1.04,6.63,0.4c0.86-0.49,0.77-1.91-1.03-5.09    c-0.16-0.29-0.06-0.65,0.23-0.81c0.24-0.13,0.52-0.09,0.71,0.09c1.35,1.31,2.23,1.91,2.71,1.99c0.01,0,0.01-0.06,0.01-0.16    c-0.01-0.46-0.23-1.18-0.64-2.06c-1.5-3.21-5.36-8.14-10.35-10.33c-3.5-1.54-4.74-3.03-6.03-4.58c-1.26-1.51-2.57-3.08-6.41-4.83    c-2.73-1.24-5.89-1.99-9.17-2.48c-3.32-0.49-6.75-0.7-10.02-0.86c-4.65-0.22-7.23-1.2-9.68-2.13l-1.08-0.4L80.7,5.82l-6.68,16.09    c-1.49,3.5-3.61,7.56-6.42,10.15c-0.02,0.02-0.05,0.05-0.08,0.07h4.74l0.02,0.19l0.09-0.19h11.47L75.39,47.4L76.38,52.74z"
   id="path12"
   style="fill:#ffffff" />
	</g>
	<g
   id="g18"
   style="fill:#ffffff">
		<path
   class="st0"
   d="M123.18,36.46l-0.68,8.04c3.46-2.01,5.14-3.42,5.73-7.69L123.18,36.46z"
   id="path16"
   style="fill:#ffffff" />
	</g>
	<g
   id="g22"
   style="fill:#ffffff">
		<path
   class="st0"
   d="M115.11,54.69c-7.73,0.66-5.2,0.04-7.73,1.85l2.19,4.84C112.32,59.47,113.56,57.55,115.11,54.69"
   id="path20"
   style="fill:#ffffff" />
	</g>
	<g
   id="g26">
		<path
   d="M50.55,35.46c1.18-0.24,2.79-0.42,4.49-0.42c2.81,0,4.66,0.98,5.8,2.39c1.3,1.63,1.73,3.76,1.72,6.1    c0,5.96-2.64,10.99-5.04,12.96c-1.91,1.6-4.01,2.22-7.09,2.22c-1.37,0-3.13-0.15-4.2-0.44L50.55,35.46z M51.04,54.91    c0.29,0.04,0.71,0.11,1.15,0.11c1.43,0,3.04-1.15,4.05-3.24c1.09-2.24,1.86-5.16,1.86-8.68c0-2.25-0.69-4.55-2.91-4.55    c-0.44,0-0.76,0.02-0.98,0.09L51.04,54.91z M17.71,24.37c0.03-0.92,0.09-1.83,0.15-2.86h-0.12c-1.35,2.27-2.99,3.14-4.34,3.14    c-2.49,0-3.7-2.11-3.7-5.1c0-5.16,2.57-12.5,9.89-12.5c1.71,0,3.42,0.31,4.48,0.7l-1.9,9.5c-0.4,1.98-0.71,5.27-0.7,7.13H17.71z     M0,24.37l2.66-13.95H0.4l0.57-3.09h2.29l0.13-0.68c0.4-2.02,1.15-3.77,2.58-5.1C7.02,0.59,8.56,0,10.28,0    c1.14,0,1.97,0.17,2.5,0.33l-1.01,3.35c-0.4-0.13-0.77-0.2-1.36-0.2c-1.55,0-2.47,1.63-2.72,3.14L7.55,7.33h3.28l-0.57,3.09H7.01    L4.34,24.37H0z M24.57,20.64c0.67,0.37,1.54,0.73,2.73,0.7c1.27-0.03,1.97-0.84,1.97-1.9c0-0.97-0.47-1.61-1.66-2.55    c-1.47-1.19-2.15-2.7-2.15-4.16c0-3.12,2.45-5.69,6.3-5.69c1.48,0,2.58,0.28,3.2,0.65l-0.93,3.16c-0.49-0.29-1.3-0.52-2.02-0.52    c-1.37,0-2.25,0.73-2.25,1.88c0,0.85,0.49,1.4,1.29,2.04c1.91,1.47,2.54,3.13,2.54,4.47c0,3.74-2.6,5.85-6.51,5.85    c-1.57,0-2.95-0.45-3.55-0.86L24.57,20.64z M19.27,10.4c-0.34-0.08-0.66-0.11-0.89-0.11c-2.86,0-4.4,5.7-4.42,8.21    c-0.01,1.49,0.2,2.56,1.29,2.56c1.17,0,2.3-1.93,2.91-5.03L19.27,10.4z M44.83,24.37l3.26-17.04h4.35l-3.26,17.04H44.83z M48.89,3    c0.02-1.25,0.91-2.68,2.43-2.68c1.44,0,2.09,1.07,2.06,2.27c-0.02,1.73-1.2,2.7-2.5,2.7C49.47,5.29,48.87,4.29,48.89,3z     M68.36,7.33l0.11,8.19c0.02,1.61,0.06,2.78,0.03,4.04h0.07c0.35-1.39,0.69-2.53,1.27-4.35l2.59-7.87h4.37l-5.57,13.41    c-1.66,3.9-3.6,7.19-5.68,9.1c-1.01,0.94-2.18,1.68-2.93,1.99l-1.74-3.56c0.79-0.39,1.57-0.84,2.27-1.41    c1-0.77,1.93-1.77,2.33-2.71c0.09-0.23,0.15-0.42,0.11-0.74l-1.44-12.98h-2.52v0h-1.58l-2.67,13.95h-4.34l2.66-13.95h-2.26    l0.57-3.09h2.29l0.13-0.68c0.4-2.02,1.15-3.77,2.58-5.1C60.06,0.59,61.6,0,63.32,0c1.14,0,1.97,0.17,2.5,0.33l-1.01,3.35    c-0.4-0.13-0.77-0.2-1.36-0.2c-1.55,0-2.47,1.63-2.72,3.14L60.6,7.33h1.03h2.17h0.07h1.43H68.36z M43.79,2.76l-0.88,4.57h3.2    l-0.57,3.09h-3.22l-1.49,7.89c-0.1,0.59-0.15,1.11-0.15,1.44c0,1.05,0.54,1.43,1.33,1.43c0.32,0,0.75,0,1.18-0.07l-0.52,3.26    c-0.78,0.22-1.78,0.26-2.61,0.26c-2.61,0-3.89-1.45-3.89-3.73c0-0.79,0.12-1.71,0.29-2.57l1.5-7.92h-1.97l0.57-3.09h2.01    l0.68-3.49L43.79,2.76z M70.05,58.61l-0.73-5.15c-0.18-1.39-0.28-2.22-0.38-3.61h-0.08c-0.65,1.46-1.01,2.33-1.7,3.86l-2.29,4.9    h-4.4L67,46.52l-1.78-11.38h4.37l0.54,4.34c0.16,1.7,0.26,2.6,0.37,4.08h0.07c0.6-1.6,1.02-2.53,1.73-4.14l2-4.28h4.44l-6.5,11.75    l2.19,11.72H70.05z"
   id="path24"
   style="stroke-width:0;stroke-miterlimit:4;stroke-dasharray:none;fill:#ffffff" />
	</g>
</g>
</svg>
